<?xml version="1.0" encoding="UTF-8"?> <svg xmlns="http://www.w3.org/2000/svg" width="268" height="56" viewBox="0 0 268 56" fill="none"> <g clip-path="url(#clip0_173_246)"> <path d="M138.347 30.5525C139.38 30.5525 140.219 30.7299 140.823 31.1044C141.427 31.4789 141.856 32.09 142.09 32.9573C142.285 33.588 142.363 34.4553 142.382 35.5592C142.382 36.663 142.402 37.9443 142.402 39.4423C142.402 40.901 142.402 42.1822 142.382 43.2269C142.363 44.2913 142.265 45.1192 142.051 45.7302C141.739 46.7355 141.213 47.4254 140.53 47.7999C139.829 48.1745 139.029 48.3716 138.152 48.3716H134.02V30.5525H138.347ZM139.653 35.2241C139.653 34.5736 139.536 34.0611 139.283 33.6866C139.029 33.3121 138.562 33.1347 137.879 33.1347H136.71V45.7697H137.879C138.562 45.7697 139.01 45.5923 139.263 45.2375C139.517 44.8827 139.634 44.3504 139.634 43.6606V35.2241H139.653Z" fill="white"></path> <path d="M148.211 34.4554C148.211 34.8497 148.309 35.303 148.503 35.8155C148.698 36.328 148.952 36.8799 149.283 37.4713L152.09 42.5174C152.188 42.202 152.266 41.8669 152.324 41.4924C152.383 41.1179 152.402 40.7237 152.422 40.3097H154.8C154.78 41.0785 154.683 41.8866 154.488 42.7342C154.293 43.5818 154.02 44.3308 153.689 45.001L155.619 48.3717H152.597L151.934 47.2284C151.408 47.7803 150.862 48.1351 150.297 48.2928C149.732 48.4505 149.127 48.5294 148.523 48.5294C147.958 48.5294 147.451 48.4111 146.983 48.1943C146.515 47.9774 146.125 47.6621 145.774 47.2481C145.443 46.8342 145.17 46.3414 144.995 45.7698C144.8 45.1981 144.722 44.5477 144.722 43.8578C144.722 42.8328 144.936 41.9261 145.345 41.1376C145.774 40.3491 146.359 39.5804 147.119 38.8511L146.671 38.0232C146.418 37.5501 146.184 36.9982 145.989 36.3674C145.794 35.7367 145.677 35.1059 145.677 34.4357C145.677 33.8641 145.755 33.3516 145.93 32.8588C146.106 32.366 146.34 31.9521 146.652 31.5973C146.963 31.2425 147.353 30.9665 147.782 30.7497C148.231 30.5526 148.718 30.4343 149.264 30.4343C150.199 30.4343 150.979 30.6117 151.642 30.9862C152.305 31.3608 152.831 31.9718 153.221 32.8391L150.96 33.9824C150.804 33.5881 150.589 33.3122 150.336 33.1348C150.063 32.9574 149.771 32.8588 149.459 32.8588C148.991 32.8588 148.659 33.0362 148.484 33.3713C148.309 33.7064 148.211 34.0809 148.211 34.4554ZM148.367 41.0588C148.016 41.5121 147.743 41.9458 147.548 42.3597C147.353 42.7934 147.256 43.2467 147.256 43.7395C147.256 44.3703 147.412 44.9222 147.704 45.3755C147.997 45.8289 148.425 46.0654 148.952 46.0654C149.283 46.0654 149.615 45.9866 149.946 45.8289C150.258 45.6712 150.531 45.4544 150.765 45.1981L148.367 41.0588Z" fill="white"></path> <path d="M161.525 30.5525C162.558 30.5525 163.396 30.7299 164.001 31.1044C164.605 31.4789 165.034 32.09 165.268 32.9573C165.463 33.588 165.541 34.4553 165.56 35.5592C165.56 36.663 165.58 37.9443 165.58 39.4423C165.58 40.901 165.58 42.1822 165.56 43.2269C165.541 44.2913 165.443 45.1192 165.229 45.7302C164.917 46.7355 164.39 47.4254 163.708 47.7999C163.006 48.1745 162.207 48.3716 161.33 48.3716H157.197V30.5525H161.525ZM162.811 35.2241C162.811 34.5736 162.694 34.0611 162.441 33.6866C162.188 33.3121 161.72 33.1347 161.038 33.1347H159.868V45.7697H161.038C161.72 45.7697 162.168 45.5923 162.422 45.2375C162.675 44.8827 162.811 44.3504 162.811 43.6606V35.2241Z" fill="white"></path> <path d="M173.611 45.2768C173.319 45.2768 173.066 45.2177 172.832 45.1192C172.598 45.0206 172.383 44.8629 172.188 44.6855C172.013 44.5081 171.857 44.2913 171.759 44.035C171.662 43.7985 171.604 43.5225 171.604 43.2466C171.604 42.9706 171.662 42.6947 171.759 42.4581C171.857 42.2216 172.013 42.0048 172.188 41.8076C172.364 41.6302 172.578 41.4726 172.832 41.374C173.066 41.2754 173.338 41.2163 173.611 41.2163H182.812C183.007 41.2163 183.183 41.2952 183.319 41.4331C183.456 41.5711 183.534 41.7485 183.534 41.9456C183.534 42.1427 183.456 42.3201 183.319 42.4581C183.183 42.5961 183.007 42.6749 182.812 42.6749H173.592C173.436 42.6749 173.299 42.7341 173.183 42.8326C173.066 42.9312 173.007 43.0692 173.007 43.2466C173.007 43.4043 173.066 43.5422 173.183 43.6408C173.299 43.7591 173.436 43.8182 173.592 43.8182H181.974C182.247 43.8182 182.52 43.8773 182.773 43.9759C183.027 44.0745 183.241 44.2321 183.417 44.4095C183.592 44.587 183.748 44.8038 183.846 45.06C183.943 45.3163 184.002 45.5725 184.002 45.8682C184.002 46.1639 183.943 46.4201 183.846 46.6566C183.748 46.8932 183.592 47.11 183.417 47.3071C183.241 47.4845 183.027 47.6422 182.773 47.7408C182.52 47.8393 182.267 47.8985 181.974 47.8985H172.793C172.598 47.8985 172.422 47.8196 172.286 47.6816C172.149 47.5437 172.071 47.3663 172.071 47.1691C172.071 46.972 172.149 46.7946 172.286 46.6566C172.422 46.5187 172.598 46.4398 172.793 46.4398H182.033C182.189 46.4398 182.306 46.3807 182.423 46.2821C182.54 46.1836 182.598 46.0456 182.598 45.8879C182.598 45.7302 182.54 45.5922 182.423 45.474C182.306 45.3557 182.189 45.2966 182.033 45.2966H173.611V45.2768Z" fill="white"></path> <path d="M196.653 41.2163C196.848 41.2163 197.024 41.2952 197.16 41.4331C197.297 41.5711 197.375 41.7485 197.375 41.9456C197.375 42.1427 197.297 42.3201 197.16 42.4581C197.024 42.5961 196.848 42.6749 196.653 42.6749H192.17V47.1494C192.17 47.3465 192.092 47.5239 191.955 47.6619C191.819 47.7999 191.643 47.8787 191.449 47.8787C191.254 47.8787 191.078 47.7999 190.942 47.6619C190.805 47.5239 190.727 47.3465 190.727 47.1494V42.6749H186.185C186.01 42.6552 185.854 42.5764 185.717 42.4384C185.581 42.3004 185.522 42.1427 185.522 41.9456C185.522 41.7485 185.6 41.5711 185.737 41.4331C185.873 41.2952 186.049 41.2163 186.244 41.2163H196.653Z" fill="white"></path> <path d="M200.357 44.5475C200.357 44.7249 200.376 44.9418 200.415 45.1586C200.454 45.3754 200.551 45.5725 200.668 45.7696C200.785 45.947 200.961 46.1047 201.175 46.2427C201.39 46.361 201.682 46.4398 202.033 46.4398H208.057C208.407 46.4398 208.68 46.3807 208.914 46.2427C209.129 46.1244 209.304 45.9667 209.441 45.7696C209.558 45.5922 209.655 45.3754 209.694 45.1586C209.733 44.9418 209.753 44.7446 209.753 44.5475V41.9653C209.753 41.7682 209.83 41.5908 209.967 41.4528C210.103 41.3149 210.279 41.236 210.474 41.236C210.669 41.236 210.844 41.3149 210.981 41.4528C211.117 41.5908 211.195 41.7682 211.195 41.9653V44.5475C211.195 44.9418 211.137 45.336 211 45.7105C210.883 46.1047 210.688 46.4595 210.454 46.7749C210.22 47.0903 209.928 47.3663 209.577 47.5634C209.226 47.7605 208.836 47.8787 208.407 47.8787H201.507C201.097 47.8787 200.727 47.7802 200.396 47.5634C200.064 47.3663 199.791 47.0903 199.577 46.7749C199.343 46.4595 199.167 46.085 199.05 45.6908C198.933 45.2966 198.875 44.9023 198.875 44.5278V41.9456C198.875 41.7485 198.953 41.5711 199.089 41.4331C199.226 41.2952 199.401 41.2163 199.596 41.2163C199.791 41.2163 199.967 41.2952 200.103 41.4331C200.24 41.5711 200.318 41.7485 200.318 41.9456V44.5475H200.357Z" fill="white"></path> <path d="M221.995 46.4202C222.346 46.4202 222.619 46.3611 222.833 46.2231C223.048 46.1048 223.223 45.9472 223.359 45.75C223.476 45.5726 223.574 45.3558 223.613 45.139C223.652 44.9222 223.671 44.725 223.671 44.5279C223.671 44.3505 223.652 44.1337 223.613 43.9169C223.574 43.7001 223.476 43.5029 223.359 43.3058C223.243 43.1284 223.067 42.9707 222.833 42.8328C222.619 42.7145 222.326 42.6356 221.995 42.6356H213.476C213.281 42.6356 213.106 42.5568 212.969 42.4188C212.833 42.2808 212.755 42.1034 212.755 41.9063C212.755 41.7092 212.833 41.5318 212.969 41.3938C213.106 41.2558 213.281 41.177 213.476 41.177H222.307C222.736 41.177 223.126 41.2756 223.476 41.4924C223.827 41.6895 224.12 41.9655 224.354 42.2808C224.588 42.5962 224.783 42.9707 224.899 43.365C225.016 43.7592 225.094 44.1534 225.094 44.5279C225.094 44.9025 225.036 45.2967 224.919 45.6909C224.802 46.0851 224.627 46.4399 224.393 46.775C224.159 47.0904 223.886 47.3664 223.554 47.5635C223.223 47.7606 222.853 47.8789 222.463 47.8789H213.476C213.281 47.8789 213.106 47.8 212.969 47.662C212.833 47.5241 212.755 47.3467 212.755 47.1495V44.5476C212.755 44.3505 212.833 44.1731 212.969 44.0352C213.106 43.8972 213.281 43.8183 213.476 43.8183C213.671 43.8183 213.847 43.8972 213.983 44.0352C214.119 44.1731 214.197 44.3505 214.197 44.5476V46.4202H221.995Z" fill="white"></path> <path d="M228.077 47.1494C228.077 47.3465 227.999 47.5239 227.863 47.6619C227.726 47.7999 227.551 47.8787 227.356 47.8787C227.161 47.8787 226.986 47.7999 226.849 47.6619C226.713 47.5239 226.635 47.3465 226.635 47.1494V41.9456C226.635 41.7485 226.713 41.5711 226.849 41.4331C226.986 41.2952 227.161 41.2163 227.356 41.2163C227.551 41.2163 227.726 41.2952 227.863 41.4331C227.999 41.5711 228.077 41.7485 228.077 41.9456V47.1494Z" fill="white"></path> <path d="M241.918 44.5476C241.918 44.9419 241.859 45.3361 241.723 45.7106C241.606 46.1048 241.411 46.4597 241.177 46.775C240.943 47.0904 240.651 47.3664 240.3 47.5635C239.949 47.7606 239.559 47.8789 239.13 47.8789H232.229C231.82 47.8789 231.45 47.7803 231.118 47.5635C230.787 47.3664 230.514 47.0904 230.299 46.775C230.066 46.4597 229.89 46.0851 229.773 45.6909C229.656 45.2967 229.598 44.9025 229.598 44.5279C229.598 44.1534 229.656 43.7592 229.793 43.365C229.91 42.9707 230.104 42.6159 230.338 42.2808C230.572 41.9655 230.865 41.6895 231.216 41.4924C231.567 41.2953 231.956 41.177 232.385 41.177H239.286C239.695 41.177 240.046 41.2756 240.378 41.4924C240.709 41.6895 240.982 41.9655 241.216 42.2808C241.45 42.5962 241.625 42.9707 241.742 43.365C241.859 43.7789 241.918 44.1731 241.918 44.5476ZM238.818 46.4202C239.169 46.4202 239.442 46.3611 239.676 46.2231C239.89 46.1048 240.066 45.9472 240.202 45.75C240.319 45.5726 240.417 45.3558 240.456 45.139C240.495 44.9222 240.514 44.725 240.514 44.5279C240.514 44.3505 240.495 44.1337 240.456 43.9169C240.417 43.7001 240.319 43.5029 240.202 43.3058C240.085 43.1087 239.91 42.9707 239.676 42.8328C239.461 42.7145 239.169 42.6356 238.818 42.6356H232.697C232.346 42.6356 232.054 42.6948 231.839 42.8328C231.625 42.951 231.45 43.1087 231.333 43.3058C231.216 43.4832 231.118 43.7001 231.079 43.9169C231.04 44.1337 231.021 44.3308 231.021 44.5279C231.021 44.7053 231.04 44.9222 231.079 45.139C231.118 45.3558 231.216 45.5529 231.333 45.75C231.45 45.9274 231.625 46.0851 231.839 46.2231C232.054 46.3414 232.346 46.4202 232.697 46.4202H238.818Z" fill="white"></path> <path d="M183.943 35.2441C183.943 35.6186 183.885 36.0129 183.768 36.4071C183.651 36.8013 183.475 37.1561 183.241 37.4912C183.007 37.8066 182.734 38.0826 182.403 38.2797C182.072 38.4768 181.701 38.5951 181.311 38.5951H172.325C172.13 38.5951 171.954 38.5162 171.818 38.3782C171.681 38.2403 171.604 38.0629 171.604 37.8657V32.6619C171.604 32.4648 171.681 32.2874 171.818 32.1494C171.954 32.0115 172.13 31.9326 172.325 31.9326H181.155C181.584 31.9326 181.974 32.0312 182.325 32.248C182.676 32.4451 182.968 32.7211 183.202 33.0365C183.436 33.3518 183.631 33.7264 183.748 34.1206C183.885 34.4754 183.943 34.8499 183.943 35.2441ZM173.066 33.3715V37.1167H180.863C181.214 37.1167 181.487 37.0576 181.701 36.9196C181.916 36.8013 182.091 36.6436 182.228 36.4465C182.345 36.2691 182.442 36.0523 182.481 35.8355C182.52 35.6186 182.54 35.4215 182.54 35.2244C182.54 35.047 182.52 34.8302 182.481 34.6134C182.442 34.3965 182.345 34.1994 182.228 34.0023C182.111 33.8249 181.935 33.6672 181.701 33.5292C181.487 33.411 181.194 33.3321 180.863 33.3321H173.066V33.3715Z" fill="white"></path> <path d="M185.464 32.6224C185.464 32.4253 185.542 32.2479 185.678 32.1099C185.815 31.9719 185.99 31.8931 186.185 31.8931H196.926C197.121 31.8931 197.297 31.9719 197.433 32.1099C197.569 32.2479 197.647 32.4253 197.647 32.6224C197.647 32.8195 197.569 32.9969 197.433 33.1349C197.297 33.2729 197.121 33.3517 196.926 33.3517H186.185C185.99 33.3517 185.815 33.2729 185.678 33.1349C185.542 33.0166 185.464 32.8392 185.464 32.6224ZM187.316 38.5752C187.101 38.5752 186.867 38.5358 186.653 38.4372C186.439 38.3387 186.224 38.2007 186.068 38.0233C185.893 37.8459 185.756 37.6488 185.639 37.3925C185.522 37.156 185.464 36.88 185.464 36.5647V35.1849C185.464 34.9089 185.542 34.7315 185.698 34.6329C185.854 34.5344 186.107 34.495 186.439 34.495H196.614C196.809 34.495 196.985 34.5738 197.121 34.7118C197.258 34.8498 197.336 35.0272 197.336 35.2243C197.336 35.4214 197.258 35.5988 197.121 35.7368C196.985 35.8748 196.809 35.9536 196.614 35.9536H186.926V36.7026C186.926 36.8012 186.965 36.8998 187.062 36.9786C187.14 37.0574 187.257 37.0969 187.413 37.0969H196.965C197.16 37.0969 197.336 37.1757 197.472 37.3137C197.608 37.4517 197.686 37.6291 197.686 37.8262C197.686 38.0233 197.608 38.2007 197.472 38.3387C197.336 38.4767 197.16 38.5555 196.965 38.5555H187.316V38.5752Z" fill="white"></path> <path d="M210.318 31.8931C210.513 31.8931 210.689 31.9719 210.825 32.1099C210.962 32.2479 211.04 32.4253 211.04 32.6224C211.04 32.8195 210.962 32.9969 210.825 33.1349C210.689 33.2729 210.513 33.3517 210.318 33.3517H205.835V37.8459C205.835 38.043 205.757 38.2204 205.62 38.3584C205.484 38.4964 205.309 38.5752 205.114 38.5752C204.919 38.5752 204.743 38.4964 204.607 38.3584C204.47 38.2204 204.392 38.043 204.392 37.8459V33.3714H199.85C199.675 33.3517 199.519 33.2729 199.382 33.1349C199.246 32.9969 199.188 32.8392 199.188 32.6421C199.188 32.445 199.265 32.2676 199.402 32.1296C199.538 31.9916 199.714 31.9128 199.909 31.9128H210.318V31.8931Z" fill="white"></path> <path d="M211.975 38.2993C211.839 38.4767 211.644 38.5752 211.41 38.5752C211.215 38.5752 211.039 38.4964 210.903 38.3584C210.766 38.2204 210.688 38.043 210.688 37.8459C210.688 37.6488 210.747 37.5108 210.844 37.3926L214.529 32.3859C214.704 32.1493 214.919 31.9522 215.211 31.8142C215.484 31.6565 215.796 31.5974 216.127 31.5974C216.439 31.5974 216.712 31.6565 216.985 31.7945C217.258 31.9325 217.472 32.1099 217.648 32.3464L221.332 37.3334C221.391 37.4123 221.43 37.4911 221.469 37.57C221.507 37.6488 221.546 37.7474 221.546 37.8459C221.546 38.043 221.469 38.2204 221.332 38.3584C221.196 38.4964 221.02 38.5752 220.825 38.5752C220.572 38.5752 220.377 38.4767 220.24 38.2796L216.712 33.5094C216.634 33.4306 216.556 33.332 216.439 33.2335C216.342 33.1349 216.225 33.0955 216.108 33.0955C215.991 33.0955 215.893 33.1349 215.776 33.2335C215.679 33.332 215.581 33.4109 215.523 33.5094L211.975 38.2993Z" fill="white"></path> <path d="M224.51 37.846C224.51 38.0431 224.432 38.2205 224.295 38.3585C224.159 38.4964 223.984 38.5753 223.789 38.5753C223.594 38.5753 223.418 38.4964 223.282 38.3585C223.145 38.2205 223.067 38.0431 223.067 37.846V32.6422C223.067 32.4451 223.145 32.2676 223.282 32.1297C223.418 31.9917 223.594 31.9128 223.789 31.9128C223.984 31.9128 224.159 31.9917 224.295 32.1297C224.432 32.2676 224.51 32.4451 224.51 32.6422V37.846Z" fill="white"></path> <path d="M228.097 38.5753C227.804 38.5753 227.551 38.5162 227.297 38.4176C227.044 38.319 226.829 38.1613 226.635 37.9839C226.44 37.8065 226.303 37.5897 226.186 37.3335C226.069 37.0969 226.011 36.821 226.011 36.545V32.6422C226.011 32.4451 226.089 32.2676 226.225 32.1297C226.362 31.9917 226.537 31.9128 226.732 31.9128C226.927 31.9128 227.102 31.9917 227.239 32.1297C227.375 32.2676 227.453 32.4451 227.453 32.6422V36.545C227.453 36.7027 227.512 36.8407 227.629 36.9392C227.746 37.0575 227.882 37.1166 228.038 37.1166H237.122C237.317 37.1166 237.493 37.1955 237.629 37.3335C237.765 37.4714 237.843 37.6489 237.843 37.846C237.843 38.0431 237.765 38.2205 237.629 38.3585C237.493 38.4964 237.317 38.5753 237.122 38.5753H228.097Z" fill="white"></path> <path d="M240.845 37.846C240.845 38.0431 240.767 38.2205 240.63 38.3585C240.494 38.4964 240.319 38.5753 240.124 38.5753C239.929 38.5753 239.753 38.4964 239.617 38.3585C239.48 38.2205 239.402 38.0431 239.402 37.846V32.6422C239.402 32.4451 239.48 32.2676 239.617 32.1297C239.753 31.9917 239.929 31.9128 240.124 31.9128C240.319 31.9128 240.494 31.9917 240.63 32.1297C240.767 32.2676 240.845 32.4451 240.845 32.6422V37.846Z" fill="white"></path> <path d="M252.678 32.6224C252.678 32.4253 252.756 32.2479 252.893 32.1099C253.029 31.9719 253.205 31.8931 253.4 31.8931C253.595 31.8931 253.77 31.9719 253.906 32.1099C254.043 32.2479 254.121 32.4253 254.121 32.6224V37.0772C254.121 37.5108 253.984 37.8656 253.712 38.1416C253.439 38.4175 253.088 38.5555 252.659 38.5555C252.522 38.5555 252.386 38.5358 252.25 38.4964C252.113 38.457 251.996 38.3978 251.879 38.319L244.939 34.0219C244.744 33.9036 244.588 33.8248 244.472 33.7459C244.335 33.6868 244.238 33.6474 244.16 33.6474C244.004 33.6474 243.906 33.7459 243.867 33.943C243.828 34.1402 243.809 34.4161 243.809 34.7906V37.8459C243.809 38.043 243.731 38.2204 243.594 38.3584C243.458 38.4964 243.282 38.5752 243.087 38.5752C242.893 38.5752 242.717 38.4964 242.581 38.3584C242.444 38.2204 242.366 38.043 242.366 37.8459V33.3911C242.366 32.9575 242.503 32.6027 242.776 32.3267C243.048 32.0508 243.399 31.9128 243.828 31.9128C243.965 31.9128 244.101 31.9325 244.238 31.9719C244.374 32.0113 244.491 32.0705 244.608 32.1493L251.548 36.4464C251.743 36.5647 251.899 36.6435 252.016 36.7224C252.133 36.7815 252.25 36.8209 252.328 36.8209C252.483 36.8209 252.581 36.7224 252.62 36.5252C252.659 36.3281 252.678 36.0522 252.678 35.6776V32.6224Z" fill="white"></path> <path d="M259.637 35.2439C259.637 35.0468 259.715 34.8694 259.851 34.7314C259.988 34.5935 260.163 34.5146 260.358 34.5146H266.167C266.421 34.5146 266.655 34.554 266.889 34.6526C267.103 34.7512 267.298 34.8891 267.473 35.0468C267.649 35.2242 267.766 35.4213 267.863 35.6382C267.961 35.8747 268 36.1112 268 36.3675V36.7026C268 36.9588 267.961 37.2151 267.863 37.4319C267.766 37.6487 267.649 37.8458 267.473 38.0232C267.298 38.2006 267.103 38.3189 266.889 38.4175C266.674 38.516 266.421 38.5554 266.167 38.5554H258.272C257.863 38.5554 257.493 38.4569 257.161 38.2401C256.83 38.043 256.557 37.767 256.342 37.4516C256.108 37.1362 255.933 36.7814 255.816 36.3872C255.699 35.993 255.641 35.5987 255.641 35.2242C255.641 34.8497 255.699 34.4555 255.836 34.0613C255.953 33.667 256.147 33.3122 256.381 32.9771C256.615 32.6617 256.908 32.3858 257.259 32.1887C257.609 31.9916 257.999 31.8733 258.428 31.8733H267.259C267.454 31.8733 267.629 31.9521 267.766 32.0901C267.902 32.2281 267.98 32.4055 267.98 32.6026C267.98 32.7997 267.902 32.9771 267.766 33.1151C267.629 33.2531 267.454 33.3319 267.259 33.3319H258.76C258.409 33.3319 258.116 33.3911 257.902 33.529C257.687 33.6473 257.512 33.805 257.395 34.0021C257.278 34.1795 257.181 34.3963 257.142 34.6132C257.103 34.83 257.064 35.0271 257.064 35.2242C257.064 35.4016 257.083 35.6185 257.142 35.8353C257.181 36.0521 257.278 36.2492 257.395 36.4463C257.512 36.6237 257.687 36.7814 257.902 36.9194C258.116 37.0377 258.409 37.1165 258.76 37.1165H266.109C266.226 37.1165 266.343 37.0574 266.44 36.9391C266.538 36.8208 266.577 36.7026 266.577 36.5449C266.577 36.3872 266.538 36.2492 266.44 36.1507C266.362 36.0324 266.245 35.9733 266.109 35.9733H260.358C260.163 35.9733 259.988 35.8944 259.851 35.7564C259.715 35.6185 259.637 35.4411 259.637 35.2439Z" fill="white"></path> <path d="M101.621 22.3723C101.309 21.2291 100.432 19.8296 99.2428 18.8637C96.4162 16.5772 92.3421 16.7152 89.7884 19.1791C87.839 16.8532 85.3633 14.7638 82.4782 12.9503C84.7395 11.8465 86.299 9.52053 86.299 6.80036C86.299 3.03549 83.2775 -0.0197754 79.5542 -0.0197754C75.8309 -0.0197754 72.8093 3.03549 72.8093 6.80036V6.82007C72.7703 7.41141 72.8483 8.02246 73.0238 8.63352C68.5792 7.15516 64.0566 6.36671 58.8518 6.18931C43.6467 5.6571 30.4299 11.4917 24.6793 20.2041C11.4235 21.0123 0.662974 30.8285 0.0391739 43.3847C-0.13627 46.7356 0.429049 49.9683 1.61817 52.9644C1.59867 52.4125 1.59867 51.8605 1.63766 51.3086C2.28095 38.7919 12.9635 28.9954 26.1998 28.1478C29.6697 20.6575 38.5003 14.9214 49.6897 12.7138C41.6583 15.5325 36.1806 20.8546 35.8687 27.2213C35.8297 27.8718 35.8687 28.5223 35.9272 29.1728C36.6094 29.3699 37.2722 29.5867 37.935 29.8232C38.5393 27.3002 40.7811 25.4276 43.4712 25.4276C46.6097 25.4276 49.1634 28.0098 49.1634 31.1833C49.1634 32.8588 48.4616 34.3569 47.331 35.4016C48.1692 35.1256 48.8515 34.8496 49.6118 34.2189C52.146 32.1098 51.8925 27.1819 49.0854 24.718C47.5649 23.3973 45.869 22.8651 44.6409 22.7666C48.3837 17.957 55.3624 14.9214 63.1989 15.3354C73.7255 15.8873 82.1078 22.4709 82.9461 30.4737C85.0124 29.4881 87.1177 28.7588 89.457 28.3055C88.1899 26.0978 88.4238 23.2594 90.1588 21.4459C92.2446 19.2777 95.6755 19.0214 98.0537 20.9531C100.432 22.8848 100.627 26.6891 98.775 29.0151C98.6775 29.1531 99.4183 28.6011 99.8861 28.1281C111.972 30.1189 121.173 39.4818 122.07 50.737C122.245 49.7514 122.382 48.7659 122.421 47.7606C123.006 35.6184 114.019 25.0728 101.621 22.3723ZM73.784 7.45083C73.784 4.71095 75.9868 2.48357 78.6964 2.48357C81.4061 2.48357 83.6089 4.71095 83.6089 7.45083C83.6089 10.1907 81.4061 12.4181 78.6964 12.4181C75.9868 12.4181 73.784 10.1907 73.784 7.45083Z" fill="white"></path> <path d="M30.1767 36.0323C25.0889 32.6223 18.2076 34.0612 14.8157 39.2256C11.4238 44.39 12.8273 51.3481 17.9152 54.7581C18.7144 55.2903 19.5527 55.7043 20.4104 56C20.3909 55.9802 20.3714 55.9802 20.3519 55.9605C16.1218 53.1221 14.9716 47.3467 17.7787 43.0693C20.5858 38.7722 26.2975 37.5895 30.5276 40.428C33.3542 42.3203 34.7968 45.5135 34.6213 48.7068C36.0444 44.0746 34.3679 38.8511 30.1767 36.0323Z" fill="white"></path> <path d="M96.2796 33.194C90.451 34.2781 86.5327 39.955 87.5464 45.8881C87.6439 46.4597 87.7803 46.9919 87.9558 47.5241C87.4684 42.8328 90.6459 38.4569 95.2854 37.5896C100.139 36.7026 104.74 39.955 105.578 44.8828C106.241 48.766 104.35 52.5111 101.153 54.364C106.299 52.7674 109.613 47.4847 108.678 41.9655C107.664 36.0324 102.108 32.1099 96.2796 33.194Z" fill="white"></path> </g> <defs> <clipPath id="clip0_173_246"> <rect width="268" height="56" fill="white"></rect> </clipPath> </defs> </svg> 